<svg xmlns="http://www.w3.org/2000/svg" viewBox="0 0 1102.71 994.79"><title>Asset 5</title><g id="Layer_2" data-name="Layer 2"><g id="Layer_1-2" data-name="Layer 1"><path d="M591.58,777c-4.11.61-8.38,1.06-12.66,1.5-5.17.52-10.5.87-15.92,1.13-4.39.21-8.84.33-13.39.34C569,831.38,590.89,885.66,615.5,942.26l22.84,52.53-10.82-56.25C627.27,937.25,615.38,876,591.58,777Z"/><path d="M683.62,669.79c-14.27,10.62-41,27.06-78.42,36.42,12.69-51.48,38.61-156.49,64-258.4l-63.16,40c-15.86,71.41-31.14,139.92-40.9,183.61-10.79-41.52-23-86.65-36.63-134.52L517.36,544l-28.71,18.17-11.1,7c13.33,43.65,29,91.6,47.27,143.19-3.51-.29-7-.55-10.58-1-41-5.29-77.88-26.88-106.86-56.35a236.9,236.9,0,0,1-22.88-27.09L381,630.12c-21.6,13.62-40.87,25.73-57,35.86-4.57,2.86-9.1,5.65-13.62,8.42l-62,39.42,97-30.17c1.12,1.19,2.23,2.39,3.38,3.57,35.94,36.75,85.82,66.08,152.5,76.85,115.85,12.6,187.19-40.22,210.63-61.34L696,684.21Z"/><path d="M798.13,442.12s-7.87-25.57-27.94-58.33l-52.81,33.49c14.19,25,23.09,50.07,26.75,70.49l8.52-3.91,58.87-27.07,36.8-16.92-42.41,1.9Z"/><polygon points="730.24 689.32 746.78 670.72 673.05 631.13 730.24 689.32"/><path d="M1102.71,151.41l-25.09-36.79s-85.75,52.09-202.25,123.19l-20-43.18L814.3,220.41l28,37.59c-36.54,22.31-75.38,46.06-115,70.36a287,287,0,0,0-22.8-21.08c10.73-42.4,19.67-77.18,25.1-97.31,26-96.42,187.06-66.88,187.06-66.88C921.67,75.75,766.76-2,619.31,0,266.71,5,174.88,312,174.88,312,417.61-15.62,751.34,83.87,795,106.57c-31-2-62.21,24.77-62.21,24.77l4.8-21.12s-51,5.43-70.81,101.06c-2.6,12.52-7.35,34.55-13.47,62.58-27.31-13.74-59.19-24-96.41-28.06-43.12-4.7-82.61,1.34-117.63,15.21q-12.52-29.38-28.13-60.76L398.9,175.68l.25,27.45c0,1.47.38,27.6,7.25,73.93a254.94,254.94,0,0,0-54,42.51l-66.88-45.22,54.11,59.41a290.57,290.57,0,0,0-44.36,71.9l-37.7-5.29L291.88,414a295.28,295.28,0,0,0-19.21,76.81c-3.15,28.83,2.23,68.1,18.49,108l-.77.49C114.82,712.36,0,798.55,0,798.55S19.91,793,54.64,780c57.56-21.69,155.83-64.16,271.79-136.86,107.4-67.33,349.72-220.92,535.27-338.65l-9.84-33.62,32.32,43.38,70.23,94.27L903.74,299.06l-7.63-16.46c92.14-58.48,165.67-105.19,194-123.17ZM672,362.21l-47.58,29.21c-40.05,24.61-79.64,49-117.3,72.24-10-33.54-20.7-68.11-32-103.42l44.67-37.06a176.47,176.47,0,0,0-51,17.37c-3.84,2-7.61,4.09-11.26,6.34a191.51,191.51,0,0,0-21.95,15.82c-3.72,3.09-7.34,6.28-10.81,9.61,7.2,31.75,17.39,73.3,31.23,123-35.64,22.09-68.58,42.62-97.41,60.71l-7.91,5c-6.94-22.43-9.75-45-7.48-65.72,9.2-84.39,85.09-202.46,218.78-187.89,46.13,5,83.36,26.19,112,53.65Z"/></g></g></svg>